<svg preserveAspectRatio="none" overflow="visible" style="display: block;" width="28" height="28" viewBox="0 0 28 28" fill="none" xmlns="http://www.w3.org/2000/svg">
<g id="lock-keyhole">
<path id="Vector" d="M8.16667 11.6665V8.1662C8.16667 6.61898 8.78125 5.13513 9.87521 4.04108C10.9692 2.94703 12.4529 2.3324 14 2.3324C15.5471 2.3324 17.0308 2.94703 18.1248 4.04108C19.2188 5.13513 19.8333 6.61898 19.8333 8.1662V11.6665M8.16667 11.6665H5.83333C4.54467 11.6665 3.5 12.7112 3.5 14V23.3341C3.5 24.6228 4.54467 25.6676 5.83333 25.6676H22.1667C23.4553 25.6676 24.5 24.6228 24.5 23.3341V14C24.5 12.7112 23.4553 11.6665 22.1667 11.6665H19.8333M8.16667 11.6665H19.8333M15.1667 18.667C15.1667 19.3114 14.6443 19.8338 14 19.8338C13.3557 19.8338 12.8333 19.3114 12.8333 18.667C12.8333 18.0227 13.3557 17.5003 14 17.5003C14.6443 17.5003 15.1667 18.0227 15.1667 18.667Z" stroke-linecap="round" stroke="#A77442"/>
</g>
</svg>
