<svg preserveAspectRatio="none" overflow="visible" style="display: block;" width="52" height="52" viewBox="0 0 52 52" fill="none" xmlns="http://www.w3.org/2000/svg">
<g id="lock-keyhole">
<path id="Vector" d="M15.1667 21.6663V15.1658C15.1667 12.2924 16.308 9.53667 18.3397 7.50486C20.3713 5.47306 23.1268 4.3316 26 4.3316C28.8732 4.3316 31.6287 5.47306 33.6603 7.50486C35.692 9.53667 36.8333 12.2924 36.8333 15.1658V21.6663M15.1667 21.6663H10.8333C8.4401 21.6663 6.5 23.6066 6.5 26V43.3347C6.5 45.7281 8.4401 47.6684 10.8333 47.6684H41.1667C43.5599 47.6684 45.5 45.7281 45.5 43.3347V26C45.5 23.6066 43.5599 21.6663 41.1667 21.6663H36.8333M15.1667 21.6663H36.8333M28.1667 34.6674C28.1667 35.8641 27.1966 36.8342 26 36.8342C24.8034 36.8342 23.8333 35.8641 23.8333 34.6674C23.8333 33.4706 24.8034 32.5005 26 32.5005C27.1966 32.5005 28.1667 33.4706 28.1667 34.6674Z" stroke-linecap="round" stroke="#A77442"/>
</g>
</svg>
