<svg preserveAspectRatio="none" overflow="visible" style="display: block;" width="23" height="23" viewBox="0 0 23 23" fill="none" xmlns="http://www.w3.org/2000/svg">
<g id="leaf">
<path id="Vector" d="M1.9159 20.125C1.9159 18.0813 2.81175 16.3475 4.44166 15.2954M4.44166 15.2954C5.10475 14.8673 5.88933 14.5521 6.78451 14.3748C9.1038 13.9147 11.4998 12.458 12.4582 11.4996M4.44166 15.2954C4.81168 16.0881 5.33636 16.8077 5.99312 17.4084C7.23494 18.5442 8.85826 19.1717 10.5411 19.1666C15.5439 19.1666 20.125 14.8539 20.125 9.58289C20.125 5.9219 19.1666 3.83265 18.2082 1.9159C16.2915 4.29267 14.8539 4.79102 9.39106 5.84523C7.73222 6.12862 6.24047 7.02511 5.21168 8.35688C4.18289 9.68865 3.69221 11.3584 3.83696 13.0351C3.90515 13.825 4.11204 14.5892 4.44166 15.2954Z" stroke-linecap="round" stroke="#00ADEF"/>
</g>
</svg>
